<?xml version="1.0" encoding="utf-8"?>
<!-- Generator: Adobe Illustrator 16.0.0, SVG Export Plug-In . SVG Version: 6.00 Build 0)  -->
<!DOCTYPE svg PUBLIC "-//W3C//DTD SVG 1.1//EN" "http://www.w3.org/Graphics/SVG/1.1/DTD/svg11.dtd">
<svg version="1.1" id="Layer_1" xmlns="http://www.w3.org/2000/svg" xmlns:xlink="http://www.w3.org/1999/xlink" x="0px" y="0px"
	 width="14.188px" height="14.25px" viewBox="5.063 4.75 14.188 14.25" enable-background="new 5.063 4.75 14.188 14.25"
	 xml:space="preserve">
<path fill="none" d="M0,0h24v24H0V0z"/>
<path fill="#7977FB" d="M18.3,5.71c-0.39-0.39-1.021-0.39-1.409,0L12,10.59L7.11,5.7c-0.39-0.39-1.02-0.39-1.41,0
	c-0.39,0.39-0.39,1.02,0,1.41L10.59,12L5.7,16.891c-0.39,0.39-0.39,1.02,0,1.409c0.39,0.39,1.02,0.39,1.41,0L12,13.41l4.891,4.89
	c0.389,0.39,1.02,0.39,1.409,0s0.39-1.02,0-1.409L13.41,12l4.89-4.89C18.68,6.73,18.68,6.09,18.3,5.71z"/>
</svg>
