<?xml version="1.0" encoding="utf-8"?>
<!-- Generator: Adobe Illustrator 16.0.0, SVG Export Plug-In . SVG Version: 6.00 Build 0)  -->
<!DOCTYPE svg PUBLIC "-//W3C//DTD SVG 1.1//EN" "http://www.w3.org/Graphics/SVG/1.1/DTD/svg11.dtd">
<svg version="1.1" id="Layer_1" xmlns="http://www.w3.org/2000/svg" xmlns:xlink="http://www.w3.org/1999/xlink" x="0px" y="0px"
	 width="355px" height="330.723px" viewBox="120.14 180.445 355 330.723" enable-background="new 120.14 180.445 355 330.723"
	 xml:space="preserve">
<g>
	<path fill="#7977FB" d="M428.602,269.148H166.678c-22.989,0-41.669-18.691-41.669-41.669s18.68-41.669,41.669-41.669h261.924
		c22.978,0,41.669,18.691,41.669,41.669S451.579,269.148,428.602,269.148z M166.678,209.621c-9.846,0-17.858,8.012-17.858,17.858
		c0,9.846,8.013,17.858,17.858,17.858h261.924c9.834,0,17.858-8.013,17.858-17.858c0-9.846-8.024-17.858-17.858-17.858H166.678z"/>
</g>
<g>
	<path fill="#7977FB" d="M428.602,507.261H166.678c-22.989,0-41.669-18.691-41.669-41.67c0-22.978,18.68-41.669,41.669-41.669
		h261.924c22.978,0,41.669,18.691,41.669,41.669C470.271,488.569,451.579,507.261,428.602,507.261z M166.678,447.732
		c-9.846,0-17.858,8.013-17.858,17.858c0,9.847,8.013,17.858,17.858,17.858h261.924c9.834,0,17.858-8.012,17.858-17.858
		c0-9.846-8.024-17.858-17.858-17.858H166.678z"/>
</g>
<g>
	<path fill="#7977FB" d="M333.357,388.205H166.678c-22.989,0-41.669-18.692-41.669-41.669c0-22.978,18.68-41.67,41.669-41.67
		h166.679c22.978,0,41.67,18.692,41.67,41.67C375.027,369.513,356.334,388.205,333.357,388.205z M166.678,328.677
		c-9.846,0-17.858,8.012-17.858,17.858c0,9.846,8.013,17.858,17.858,17.858h166.679c9.834,0,17.858-8.013,17.858-17.858
		c0-9.846-8.024-17.858-17.858-17.858H166.678z"/>
</g>
</svg>
